<svg width="25" height="27" viewBox="0 0 25 27" fill="none" xmlns="http://www.w3.org/2000/svg">
<path fill-rule="evenodd" clip-rule="evenodd" d="M12.2557 -5.24521e-06C8.62501 -5.24521e-06 5.68177 2.94325 5.68177 6.57393H4.50783C2.38282 6.57393 1.32032 6.57393 0.660164 7.23408C9.05991e-06 7.89424 9.05991e-06 8.95674 9.05991e-06 11.0817V17.9844C9.05991e-06 22.2344 9.05991e-06 24.3594 1.32032 25.6797C2.64063 27 4.76564 27 9.01565 27H15.4956C19.7457 27 21.8707 27 23.191 25.6797C24.5113 24.3594 24.5113 22.2344 24.5113 17.9844V11.0817C24.5113 8.95674 24.5113 7.89424 23.8511 7.23408C23.191 6.57393 22.1285 6.57393 20.0035 6.57393L18.8296 6.5739C18.8296 2.94323 15.8863 -5.24521e-06 12.2557 -5.24521e-06ZM12.2557 2.25391C14.6415 2.25391 16.5757 4.18806 16.5757 6.57393L7.93568 6.5739C7.93568 4.18803 9.86981 2.25391 12.2557 2.25391ZM9.17044 13.3826C9.17044 12.8303 8.72272 12.3826 8.17044 12.3826C7.61815 12.3826 7.17044 12.8303 7.17044 13.3826V16.1061C7.17044 16.6584 7.61815 17.1061 8.17044 17.1061C8.72272 17.1061 9.17044 16.6584 9.17044 16.1061V13.3826ZM17.3409 13.3826C17.3409 12.8303 16.8932 12.3826 16.3409 12.3826C15.7886 12.3826 15.3409 12.8303 15.3409 13.3826V16.1061C15.3409 16.6584 15.7886 17.1061 16.3409 17.1061C16.8932 17.1061 17.3409 16.6584 17.3409 16.1061V13.3826Z" fill="#CAAE37"/>
</svg>
